<svg xmlns="http://www.w3.org/2000/svg" id="Layer_2" viewBox="0 0 152.73 160.2"><defs><style>.cls-1{fill:#fff;}.cls-2{fill:#e8e4da;}.cls-3{fill:#99999a;}.cls-4{fill:#333b39;}.cls-5{fill:#6d6e6e;}.cls-6{fill:#3a3a3a;}</style></defs><g id="Artwork"><path class="cls-4" d="m76.37,160.2c-2.29,0-4.52-.48-6.61-1.43l-60.39-27.43c-5.69-2.59-9.37-8.29-9.37-14.54V43.41c0-6.25,3.68-11.96,9.37-14.54L69.76,1.43c2.09-.95,4.31-1.43,6.61-1.43s4.52.48,6.61,1.43l60.39,27.43c5.69,2.58,9.37,8.29,9.37,14.54v73.39c0,6.25-3.68,11.96-9.37,14.54l-60.39,27.43c-2.09.95-4.31,1.43-6.61,1.43Z"></path><path class="cls-2" d="m6.24,43.41c0-3.82,2.23-7.28,5.71-8.86L72.34,7.11c2.56-1.16,5.49-1.16,8.05,0l60.39,27.43c3.48,1.58,5.71,5.04,5.71,8.86v11.37H6.24v-11.37Z"></path><path class="cls-3" d="m6.24,42.7l10.54-3.05,7.88.44,7.78-.94,3.56,1.31s2.97,1.59,6.78,1.45c3.81-.14,6.77-1.45,6.77-1.45,0,0,7.48-.43,8.05,0s5.06,1.38,5.06,1.38l25.99,1.01s18.1-3.71,18.38-3.71,10.59.58,10.59.58c0,0,9.06-1.8,9.49-1.8s3.42,0,3.42,0l15.95,6.04v12.26l-115.7-.47-24.55.18v-13.22Z"></path><path class="cls-1" d="m107.2,49.5c-1.63-1.27-3.99-1.05-8.33-1.05h-46.24c-2.1,0-4.13-.18-5.94.04-1.81.22-11.02,3.77-11.02,3.77l-15.07,13.63.29,8.55h115.95l-18.69-23.19-10.94-1.74Z"></path><path class="cls-5" d="m13.36,52.69c.53-.78,5.06-7.61,5.6-7.75,1.22-.34,4.24,0,4.24,0l.51,1.45.94-1.01s1.16.36,1.52.22,2.25-1.59,2.25-1.59l4.06.51c.36-.8,1.38-1.96,2.17-1.96s3.91,2.25,3.91,2.25l1.16,2.17,1.23-1.45,3.04,1.16,1.81-.72.51.58.36,1.96s-2.25,1.67-4.35,2.54c-2.1.87-4.13,1.23-4.13,2.61-1.59.29-2.03,2.17-2.1,2.68-2.1.36-3.26.87-3.33,2.9-1.59.87-1.96,2.32-1.92,3.91-2.14.87-4.02,2.59-7.43,3.1-.8,2.34-1.52,7.85-1.52,7.85h-10.22l1.69-21.39Z"></path><path class="cls-5" d="m107.2,49.5c1.16,1.23,6.31,3.41,6.96,4.57.22,1.67.58,2.25,1.81,2.61s1.45,2.1,1.45,2.75c1.81.36,1.88,3.26,1.88,3.48,1.88,1.23,4.13,2.46,5.58,3.19,1.45.72,1.45,3.26,1.59,4.64.14,1.38,1.45,2.25,1.45,2.25,0,0,.94-.72,1.59-.72s2.9.29,3.41,2.17h13.6l-.04-21.28-3.49-1.85-3.04-.51-2.75-1.87-1.67-3.84-3.99-.36-2.46.8-1.56-1.96-4.82.43-1.23-2.17-2.17.58-.8,1.74-3.12,1.3-2.97,1.23-1.52-.72h-2.1l-1.59,3.55Z"></path><circle class="cls-1" cx="47.83" cy="24.33" r="7.68"></circle><path class="cls-6" d="m146.49,57.86s-1.07,2.77-2.36,5.13l.86-.13-.83,1.69c-.72-1.06-1.57-2.44-1.93-3.46.51.25,1.5.35,2.07.14-2.19-1.95-2.84-4.84-3.09-6.06.85.61,1.87.7,1.87.7-2.07-3.05-4.39-8.19-5.36-11.21-.64,3.23-2.19,6.7-3.05,7.8.7-.09,1.29-.18,1.29-.18-.89,1.59-1.85,3.94-2.94,5.07.97,0,1.9-.19,1.9-.19,0,0-1.72,3.56-2.99,5.39.82.09,1.86-.36,1.86-.36-.94,1.98-2.52,5.11-3.49,6.32.73-.12,1.83-.4,1.83-.4-1.06,2.47-2.03,4.59-2.91,6.06h-26.54l-.77-4.03-1.81.8v-23.55l-2.32-3.19s-3.48-5.29-3.77-5.36-2.39.87-2.39.87c0,0-6.67-2.54-6.89-2.46-.22.07-3.04,1.88-3.04,1.88l-2.1-2.54h-1.52l-3.48,2.54-1.38,3.19-1.81-1.88-3.41.87-2.32-.29-.36,2.75-3.04,1.59s-.58.36-.94,1.52c-1.45-.14-2.32.07-3.48,1.01-1.45-.8-2.03-3.26-2.03-3.26h-2.97s-.65,2.97-.58,3.7c.07.72-.65,12.68-.65,12.68l-1.01-1.16s-1.16.94-1.45,2.1c-.87.51-1.52,2.17-1.52,2.17,0,0,.14,3.12,0,3.55-.14.43-.94,1.16-.94,1.16v5.33h-20.54l-1.82-3.23s.65,0,1.16.07c-.36-.36-1.81-4.35-1.81-4.35,0,0,.58.29,1.23.43-.72-1.52-2.25-6.31-2.25-6.31,0,0,.65.07,1.09.07-1.38-2.25-2.32-5.51-2.32-5.51,0,0,.43.07.8.14,0,0-1.45-2.39-2.32-4.49-.22.65-1.96,4.57-1.96,4.57,0,0,.36-.14.94-.29-.04.19-.3.76-.65,1.43-.79-1.08-1.64-2.5-1.64-2.5,0,0,.59.17,1.21.2-1.12-1.28-1.55-2.36-2.39-4.13,0,0,.82.11,1.55.03-1.14-1.14-2.55-3.67-2.55-3.67,0,0,.57.24,1.44.24-.98-1.01-1.61-1.84-2.4-3.26,0,0,.52.08,1.15.16-.76-.98-2.34-3.89-3.53-6.61-.87,2.69-1.67,6.45-3.64,9.4,0,0,.74.04,1.34-.37-.14,1.66-.67,2.74-2.33,5.49.56.07,1.08-.12,1.42-.21-.31.87-1.01,1.86-1.63,2.79v62.5c0,3.82,2.23,7.28,5.71,8.86l60.39,27.43c2.56,1.16,5.49,1.16,8.05,0l60.39-27.43c3.48-1.58,5.71-5.04,5.71-8.86v-42.01h0v-16.93Z"></path><polygon class="cls-2" points="44.91 119.19 51.44 127.34 38.37 127.34 44.91 119.19"></polygon><path class="cls-2" d="m38.37,83.67h6c3.7,0,7.07,2.13,8.66,5.47l12.95,27.24,3.47-3.82.29.21-6.63,15.34h-.45l-16.39-33.16c-3.28-7.07-7.91-10.72-7.91-10.72v-.57Z"></path><path class="cls-2" d="m103.83,113.75l-6.69-5.4v-.7h17.23v.64l-2.37,2.36v17.09s-.44.56-1.14-.1c-1.77-1.68-3.71-2.83-7.03-2.83v-11.05Z"></path><polygon class="cls-2" points="101.51 83.18 112.01 83.18 112.01 94.51 101.51 83.18"></polygon><path class="cls-2" d="m92.51,127.72c-8.76,0-16.57-7.1-16.57-20.65,0-12.56,6.35-21.86,16.78-23.44l-.02.51c-5.92,2.79-7.26,7.96-7.26,17.39,0,15.12,1.77,23.3,13.7,23.75v.51c-1.6,1.07-4.16,1.94-6.64,1.94Z"></path><path class="cls-1" d="m76.37,6.24c1.37,0,2.75.29,4.03.87l60.39,27.43c3.48,1.58,5.71,5.04,5.71,8.86v73.39c0,3.82-2.23,7.28-5.71,8.86l-60.39,27.43c-1.28.58-2.65.87-4.03.87s-2.75-.29-4.03-.87l-60.39-27.43c-3.48-1.58-5.71-5.04-5.71-8.86V43.41c0-3.82,2.23-7.28,5.71-8.86L72.34,7.11c1.28-.58,2.65-.87,4.03-.87m0-2.48c-1.75,0-3.45.37-5.05,1.09L10.92,32.29c-4.35,1.98-7.16,6.34-7.16,11.12v73.39c0,4.78,2.81,9.14,7.16,11.12l60.39,27.43c1.6.73,3.3,1.09,5.05,1.09s3.45-.37,5.05-1.09l60.39-27.43c4.35-1.98,7.16-6.34,7.16-11.12V43.41c0-4.78-2.81-9.14-7.16-11.12L81.42,4.86c-1.6-.73-3.3-1.09-5.05-1.09h0Z"></path></g></svg>