<svg xmlns="http://www.w3.org/2000/svg" id="Layer_1" data-name="Layer 1" viewBox="0 0 362.23 212.05"><defs><style>.cls-1{fill:#fff;}.cls-2{fill:#be1f24;}</style></defs><path class="cls-1" d="M344.22,49.88c-34.09-19.55-79.35-30.32-127.44-30.32S123.43,30.33,89.34,49.88C54.73,69.74,35.67,96.32,35.67,124.73s19.06,55,53.67,74.85a193.1,193.1,0,0,0,20.27,10,25.53,25.53,0,0,0,25.25,22H298.71a25.53,25.53,0,0,0,25.25-22,193.91,193.91,0,0,0,20.26-10c34.62-19.85,53.68-46.44,53.68-74.85S378.84,69.74,344.22,49.88Z" transform="translate(-35.67 -19.56)"></path><path d="M394.9,124.73c0-56.42-79.75-102.17-178.12-102.17S38.67,68.31,38.67,124.73c0,34,29,64.15,73.55,82.72a22.72,22.72,0,0,0,22.64,21.33H298.71a22.71,22.71,0,0,0,22.64-21.33C365.91,188.88,394.9,158.75,394.9,124.73Z" transform="translate(-35.67 -19.56)"></path><path class="cls-1" d="M298.71,224.61a18.51,18.51,0,0,0,0-37H134.86a18.51,18.51,0,0,0,0,37Z" transform="translate(-35.67 -19.56)"></path><path d="M127.37,206.1a12.06,12.06,0,0,1,.95-4.85,11.18,11.18,0,0,1,2.58-3.72,11.36,11.36,0,0,1,3.86-2.37,13.28,13.28,0,0,1,4.74-.84,14.1,14.1,0,0,1,4.88.84,11.09,11.09,0,0,1,3.85,2.25l-4.6,5.54a4.09,4.09,0,0,0-1.58-1.24,5.08,5.08,0,0,0-2.1-.42,4.5,4.5,0,0,0-1.77.33,4,4,0,0,0-1.43,1,4.41,4.41,0,0,0-1,1.53,5.51,5.51,0,0,0-.34,2,5.05,5.05,0,0,0,.36,2,4.85,4.85,0,0,0,1,1.5,4.14,4.14,0,0,0,1.44,1,4.6,4.6,0,0,0,1.74.33,4.31,4.31,0,0,0,2.21-.54,4.68,4.68,0,0,0,1.47-1.25l4.6,5.51a11.28,11.28,0,0,1-3.72,2.41,13.13,13.13,0,0,1-5,.89,12.86,12.86,0,0,1-4.74-.85,11.62,11.62,0,0,1-3.86-2.41,11.24,11.24,0,0,1-2.58-3.71A11.87,11.87,0,0,1,127.37,206.1Z" transform="translate(-35.67 -19.56)"></path><path d="M157.39,195h8l8.69,22.3h-8.16L164.73,214h-7.09l-1.11,3.27H148.6Zm3.87,7.79-1.82,5.51h3.62Z" transform="translate(-35.67 -19.56)"></path><path d="M175.62,195h9.61a16.34,16.34,0,0,1,3.27.33,8.14,8.14,0,0,1,2.89,1.17,6.23,6.23,0,0,1,2.06,2.23,7.08,7.08,0,0,1,.79,3.52,6.27,6.27,0,0,1-3.89,6l5.66,9H187.4l-4.28-8h-.22v8h-7.28Zm7.22,9.42h1.47a6.35,6.35,0,0,0,.83-.06A2.44,2.44,0,0,0,186,204a1.9,1.9,0,0,0,.66-.57,1.56,1.56,0,0,0,.27-1,1.72,1.72,0,0,0-.23-.94,1.33,1.33,0,0,0-.56-.52,2.1,2.1,0,0,0-.75-.22,5.14,5.14,0,0,0-.75-.06h-1.78Z" transform="translate(-35.67 -19.56)"></path><path d="M217.73,217.25h-7.55L204.1,195H212l2.4,12.54h.13L217.14,195H225l2.81,12.54h.12L230.34,195H238l-6.2,22.3h-7.57l-3.15-12.59H221Z" transform="translate(-35.67 -19.56)"></path><path d="M244.12,195h8l8.7,22.3h-8.16L251.47,214h-7.1l-1.1,3.27h-7.94Zm3.87,7.79-1.82,5.51h3.62Z" transform="translate(-35.67 -19.56)"></path><path d="M270.64,217.88a15.66,15.66,0,0,1-2.66-.23,15.09,15.09,0,0,1-2.52-.68,16,16,0,0,1-2.28-1.08,10.49,10.49,0,0,1-1.92-1.36l4.57-5a7,7,0,0,0,2.09,1.51,5.78,5.78,0,0,0,2.69.66,3.06,3.06,0,0,0,1.15-.21.83.83,0,0,0,.52-.83.79.79,0,0,0-.17-.53,2,2,0,0,0-.61-.46,11.41,11.41,0,0,0-1.22-.53l-1.94-.66a15.46,15.46,0,0,1-2.17-.9,7.53,7.53,0,0,1-1.84-1.27,5.65,5.65,0,0,1-1.28-1.82,6.24,6.24,0,0,1-.47-2.53,6.89,6.89,0,0,1,.85-3.55,7.32,7.32,0,0,1,2.19-2.37,8.85,8.85,0,0,1,3-1.35,13.93,13.93,0,0,1,3.3-.41,13,13,0,0,1,4.5.85,12,12,0,0,1,4,2.46l-4.66,4.76a4.83,4.83,0,0,0-1.86-1.43,4.94,4.94,0,0,0-2-.49,3.29,3.29,0,0,0-1.32.23.83.83,0,0,0,0,1.53,13.66,13.66,0,0,0,1.68.63c.8.25,1.64.54,2.52.88a10.59,10.59,0,0,1,2.44,1.31,6.69,6.69,0,0,1,1.85,2,5.42,5.42,0,0,1,.72,2.9,7.32,7.32,0,0,1-.8,3.5,7.4,7.4,0,0,1-2.11,2.49A9.07,9.07,0,0,1,274,217.4,11.9,11.9,0,0,1,270.64,217.88Z" transform="translate(-35.67 -19.56)"></path><path d="M296.1,208.78H290v8.47H282.5V195H290v7.56h6.12V195h7.52v22.3h-7.5Z" transform="translate(-35.67 -19.56)"></path><path class="cls-2" d="M312.85,171.22a77.36,77.36,0,0,0,6-27.33c1.71-51.24-47.37-94.67-109.66-97C170.07,45.41,135.29,60.5,114,84.61c-.2.25.12.54.32.36,20.32-21.1,52.39-32.55,88.09-31.21C261.84,56,308.73,96.54,307.12,144.34a71.76,71.76,0,0,1-6.25,26.88c-.46,1.24.53.89,5.16.89S312.34,172.35,312.85,171.22Z" transform="translate(-35.67 -19.56)"></path><path class="cls-2" d="M186.57,58.11c-22.42,4.17-41.83,13.5-55.82,27-.21.17-.54-.11-.33-.33a106.47,106.47,0,0,1,29.35-21.53A122.32,122.32,0,0,1,186.57,58.11Z" transform="translate(-35.67 -19.56)"></path><path class="cls-2" d="M178.8,63.66a118.78,118.78,0,0,0-31.94,21.15c-.22.22.14.5.36.33,15.25-13.19,38.2-22.6,62.83-26.38C200.85,59,187.67,60.9,178.8,63.66Z" transform="translate(-35.67 -19.56)"></path><path class="cls-2" d="M321.26,171.22c-.46,1.24.78.89,5.4.89s6.33.24,6.84-.89a76,76,0,0,0,6.11-27.33c1.65-48.08-42.45-89.29-100.49-96.12,44.41,11.91,65.61,37,74,50.89,9.75,13.51,15.09,29.16,14.53,45.68A70.78,70.78,0,0,1,321.26,171.22Z" transform="translate(-35.67 -19.56)"></path><path class="cls-2" d="M341.63,171.22c-.46,1.24,1.08.89,5.69.89s5.79.24,6.31-.89a74.71,74.71,0,0,0,6.08-27.33C361.39,96,318.33,55,259.07,48.35c45.85,10.78,69.21,38.12,78.24,56.13A70.34,70.34,0,0,1,348,144.34,69.32,69.32,0,0,1,341.63,171.22Z" transform="translate(-35.67 -19.56)"></path><path class="cls-1" d="M81.48,133.94H70.91l5.65-22.5H68.84l2.24-8.94h26l-2.25,8.94H87.13Z" transform="translate(-35.67 -19.56)"></path><path class="cls-1" d="M93.68,118.05a20.81,20.81,0,0,1,3-6.81,21.61,21.61,0,0,1,5-5.17,22.21,22.21,0,0,1,6.36-3.29,22.74,22.74,0,0,1,7.22-1.16,17.77,17.77,0,0,1,6.62,1.16,11.65,11.65,0,0,1,4.73,3.29,10.85,10.85,0,0,1,2.39,5.17,15.94,15.94,0,0,1-.38,6.81,21.27,21.27,0,0,1-3.06,6.88,22.44,22.44,0,0,1-5,5.31,23,23,0,0,1-6.41,3.39,22.11,22.11,0,0,1-7.23,1.2,17.18,17.18,0,0,1-6.62-1.2,11.56,11.56,0,0,1-4.67-3.39,11.44,11.44,0,0,1-2.34-5.31A16.42,16.42,0,0,1,93.68,118.05Zm11.23,0a8.18,8.18,0,0,0-.25,2.84,5.26,5.26,0,0,0,.74,2.22,3.81,3.81,0,0,0,1.61,1.44,5.08,5.08,0,0,0,2.35.52,6.67,6.67,0,0,0,2.6-.52,8.18,8.18,0,0,0,2.34-1.44,9.15,9.15,0,0,0,1.86-2.22,9.68,9.68,0,0,0,1.18-2.84,7.55,7.55,0,0,0,.23-2.78,4.22,4.22,0,0,0-2.41-3.49,5.52,5.52,0,0,0-2.34-.47,7.57,7.57,0,0,0-2.61.47,8.21,8.21,0,0,0-2.32,1.37,8.56,8.56,0,0,0-1.81,2.12A9.53,9.53,0,0,0,104.91,118.05Z" transform="translate(-35.67 -19.56)"></path><path class="cls-1" d="M140.31,116.19l-4,17.75h-9.86l7.89-31.44H148.2l1.44,16.92h.22L159,102.5h14.27l-7.89,31.44h-10.3l4.75-17.66-.26,0-10.31,17.7h-7.46l-1.31-17.75Z" transform="translate(-35.67 -19.56)"></path><path class="cls-1" d="M182.48,116.19l-4,17.75h-9.86l7.88-31.44h13.84l1.44,16.92H192l9.18-16.92h14.26l-7.89,31.44H197.29L202,116.28l-.25,0-10.31,17.7H184l-1.31-17.75Z" transform="translate(-35.67 -19.56)"></path><path class="cls-1" d="M231.34,133.94H220.77L224,121.07l-7.19-18.57h12.74l2.65,9.25,7.07-9.25H251.7l-17.13,18.57Z" transform="translate(-35.67 -19.56)"></path><path class="cls-1" d="M262,102.5,254.45,115h-7.28l6.43-12.53Z" transform="translate(-35.67 -19.56)"></path><path class="cls-1" d="M264.91,134.83a19.88,19.88,0,0,1-3.67-.33,16.71,16.71,0,0,1-3.31-1,15.57,15.57,0,0,1-2.84-1.49,12,12,0,0,1-2.23-1.92l8.2-7a7,7,0,0,0,2.42,2.13,6.88,6.88,0,0,0,3.56.93,4.91,4.91,0,0,0,1.7-.3,1.6,1.6,0,0,0,1-1.16,1,1,0,0,0-.05-.76,1.94,1.94,0,0,0-.7-.65,11.61,11.61,0,0,0-1.52-.73c-.67-.26-1.49-.58-2.5-.94a16.4,16.4,0,0,1-2.75-1.26,7.52,7.52,0,0,1-2.14-1.8,5.69,5.69,0,0,1-1.16-2.55,8.29,8.29,0,0,1,.24-3.59,12.37,12.37,0,0,1,2.44-5,15.32,15.32,0,0,1,3.93-3.36,16.85,16.85,0,0,1,4.71-1.89,21.17,21.17,0,0,1,4.81-.58,15.74,15.74,0,0,1,6,1.2,12,12,0,0,1,4.79,3.47l-8.25,6.7a4.82,4.82,0,0,0-2.12-2,5.84,5.84,0,0,0-2.62-.68,4.91,4.91,0,0,0-1.95.33,1.55,1.55,0,0,0-1,1.08.87.87,0,0,0,.46,1.07,17.44,17.44,0,0,0,2.16.89c1,.35,2.11.77,3.23,1.23a11.09,11.09,0,0,1,3,1.86,6.66,6.66,0,0,1,1.89,2.76,6.89,6.89,0,0,1,0,4.09,13.28,13.28,0,0,1-2.37,5,15.58,15.58,0,0,1-3.86,3.49,16.72,16.72,0,0,1-4.67,2.09A18.13,18.13,0,0,1,264.91,134.83Z" transform="translate(-35.67 -19.56)"></path><path class="cls-1" d="M155.38,164.59H168.9l-.8,3.17H151l6.49-25.51H174l-.79,3.14h-13L158.33,153h12.21l-.78,3.06H157.55Z" transform="translate(-35.67 -19.56)"></path><path class="cls-1" d="M185.84,151.76l8.58-9.51h4.23l-11.33,12.07,6,13.44h-4.57L184.36,157l-9.68,10.74h-4.45l12.68-13.51-5.27-12h4.42Z" transform="translate(-35.67 -19.56)"></path><path class="cls-1" d="M202,142.25h7.89a14.77,14.77,0,0,1,3.7.42,6.16,6.16,0,0,1,2.6,1.28,4.07,4.07,0,0,1,1.3,2.19,6.77,6.77,0,0,1-.16,3.21,8.89,8.89,0,0,1-1.54,3.28,8.75,8.75,0,0,1-2.55,2.23,11.9,11.9,0,0,1-3.32,1.29,17.28,17.28,0,0,1-3.85.4H202l-2.85,11.21h-3.62Zm.74,11.28h3.84a13.17,13.17,0,0,0,2.49-.23,7.65,7.65,0,0,0,2.1-.73,4.88,4.88,0,0,0,1.57-1.27,5.14,5.14,0,0,0,.94-2,3.43,3.43,0,0,0,0-1.93,2.63,2.63,0,0,0-.92-1.26,4.17,4.17,0,0,0-1.71-.68,12.69,12.69,0,0,0-2.32-.2h-3.91Z" transform="translate(-35.67 -19.56)"></path><path class="cls-1" d="M218.43,167.76h-3.61l6.5-25.51h8.29a14.4,14.4,0,0,1,3.45.39,6.57,6.57,0,0,1,2.63,1.19,4.25,4.25,0,0,1,1.45,2.19,6.37,6.37,0,0,1-.12,3.3,8.19,8.19,0,0,1-2.91,4.53,10.78,10.78,0,0,1-5.09,2.2l4.26,11.71h-4.39l-3.69-11.35h-3.88Zm3.65-14.34h4.18a13.38,13.38,0,0,0,2.42-.21,8,8,0,0,0,2.1-.7,5.5,5.5,0,0,0,1.62-1.27,4.71,4.71,0,0,0,1-1.92,3.32,3.32,0,0,0,0-1.93,2.59,2.59,0,0,0-.94-1.25,4.58,4.58,0,0,0-1.68-.66,11.46,11.46,0,0,0-2.18-.2h-4.42Z" transform="translate(-35.67 -19.56)"></path><path class="cls-1" d="M240.35,164.59h13.53l-.81,3.17H235.93l6.5-25.51H259l-.8,3.14h-13L243.3,153h12.21l-.78,3.06H242.52Z" transform="translate(-35.67 -19.56)"></path><path class="cls-1" d="M275.09,147a3.88,3.88,0,0,0-1.64-1.7,5.36,5.36,0,0,0-2.8-.68,7.49,7.49,0,0,0-1.83.24,6.57,6.57,0,0,0-1.82.76,6.24,6.24,0,0,0-1.52,1.29,4.53,4.53,0,0,0-.93,1.86,2.94,2.94,0,0,0,0,1.74,2.59,2.59,0,0,0,.83,1.19,5.68,5.68,0,0,0,1.47.84c.59.23,1.22.47,1.88.7.81.26,1.63.56,2.44.89a7,7,0,0,1,2.11,1.34,4.62,4.62,0,0,1,1.27,2.08,6,6,0,0,1-.11,3.14,9.22,9.22,0,0,1-1.63,3.44,10.11,10.11,0,0,1-2.6,2.42A11.8,11.8,0,0,1,267,168a13.27,13.27,0,0,1-3.46.46,11,11,0,0,1-4.5-.93,6.56,6.56,0,0,1-3.07-2.78l3.41-2.34a4.76,4.76,0,0,0,1.9,2.16,5.76,5.76,0,0,0,3.11.83,7.61,7.61,0,0,0,1.9-.26,6.73,6.73,0,0,0,3.43-2.13,5.11,5.11,0,0,0,1-2,3.19,3.19,0,0,0,0-1.92,2.89,2.89,0,0,0-1-1.31,6.5,6.5,0,0,0-1.72-.93l-2.16-.77a16.22,16.22,0,0,1-2.22-.87,6.08,6.08,0,0,1-1.82-1.35,4.31,4.31,0,0,1-1-2,6.29,6.29,0,0,1,.17-3,8.24,8.24,0,0,1,1.62-3.27,10.09,10.09,0,0,1,2.62-2.27,11,11,0,0,1,3.19-1.32,13.69,13.69,0,0,1,3.31-.41,9.81,9.81,0,0,1,4,.79,6,6,0,0,1,2.63,2.12Z" transform="translate(-35.67 -19.56)"></path><path class="cls-1" d="M293.8,147a3.85,3.85,0,0,0-1.65-1.7,5.28,5.28,0,0,0-2.78-.68,7.56,7.56,0,0,0-1.84.24,6.57,6.57,0,0,0-1.82.76,6.06,6.06,0,0,0-1.52,1.29,4.65,4.65,0,0,0-.92,1.86,3,3,0,0,0,0,1.74,2.66,2.66,0,0,0,.83,1.19,5.68,5.68,0,0,0,1.47.84c.59.23,1.21.47,1.89.7s1.62.56,2.44.89a7.11,7.11,0,0,1,2.11,1.34,4.69,4.69,0,0,1,1.26,2.08,6,6,0,0,1-.11,3.14,9.37,9.37,0,0,1-1.63,3.44,10.27,10.27,0,0,1-2.6,2.42,11.8,11.8,0,0,1-3.24,1.43,13.33,13.33,0,0,1-3.46.46,10.86,10.86,0,0,1-4.49-.93,6.63,6.63,0,0,1-3.08-2.78l3.42-2.34a4.74,4.74,0,0,0,1.89,2.16,5.77,5.77,0,0,0,3.12.83,7.47,7.47,0,0,0,1.89-.26,6.32,6.32,0,0,0,1.86-.79,6.46,6.46,0,0,0,1.57-1.34,5,5,0,0,0,1-2,3.11,3.11,0,0,0,0-1.92,3,3,0,0,0-1-1.31,6.5,6.5,0,0,0-1.72-.93c-.67-.25-1.4-.5-2.16-.77a16.34,16.34,0,0,1-2.23-.87,6,6,0,0,1-1.81-1.35,4.2,4.2,0,0,1-1-2,6.14,6.14,0,0,1,.16-3,8.24,8.24,0,0,1,1.62-3.27,10,10,0,0,1,2.63-2.27A10.93,10.93,0,0,1,287,142a13.81,13.81,0,0,1,3.31-.41,9.81,9.81,0,0,1,4,.79,5.91,5.91,0,0,1,2.63,2.12Z" transform="translate(-35.67 -19.56)"></path><path class="cls-1" d="M360.67,162.5a4.73,4.73,0,0,1,.39-1.91,4.82,4.82,0,0,1,1.05-1.56,5.31,5.31,0,0,1,1.57-1,4.87,4.87,0,0,1,3.82,0,5.13,5.13,0,0,1,1.56,1,4.84,4.84,0,0,1,1.06,1.56,4.73,4.73,0,0,1,.39,1.91,4.65,4.65,0,0,1-.39,1.9,4.87,4.87,0,0,1-1.06,1.54,4.79,4.79,0,0,1-1.56,1,5,5,0,0,1-5.39-1,4.84,4.84,0,0,1-1.05-1.54A4.65,4.65,0,0,1,360.67,162.5Zm.78,0a4,4,0,0,0,.32,1.6,4.24,4.24,0,0,0,.88,1.32,4.3,4.3,0,0,0,1.32.9,4,4,0,0,0,1.62.32,4,4,0,0,0,1.62-.32,4.3,4.3,0,0,0,1.32-.9,4.42,4.42,0,0,0,.88-1.32,4.21,4.21,0,0,0,0-3.22,4.42,4.42,0,0,0-.88-1.32,4.24,4.24,0,0,0-1.32-.88,4,4,0,0,0-1.62-.33,4,4,0,0,0-1.62.33,4,4,0,0,0-2.2,2.2A4,4,0,0,0,361.45,162.5Zm2.22-2.79h1.94a3.22,3.22,0,0,1,.76.09,2.15,2.15,0,0,1,.66.28,1.57,1.57,0,0,1,.46.5,1.54,1.54,0,0,1,.17.75,1.47,1.47,0,0,1-.34,1,1.72,1.72,0,0,1-.93.5l1.49,2.42h-1.21l-1.3-2.31h-.71v2.31h-1Zm1.79,2.42a2.07,2.07,0,0,0,.82-.16.64.64,0,0,0,.39-.66.59.59,0,0,0-.36-.6,1.88,1.88,0,0,0-.74-.15h-.91v1.57Z" transform="translate(-35.67 -19.56)"></path></svg>