<?xml version="1.0" encoding="UTF-8"?>
<svg id="Layer_1" data-name="Layer 1" xmlns="http://www.w3.org/2000/svg" viewBox="0 0 1200 600">
  <defs>
    <style>
      .cls-1 {
        fill: gold;
      }
    </style>
  </defs>
  <polygon class="cls-1" points="1120.55 551.19 1100.4 573.96 1075.5 547.92 1053.31 573.24 1025.52 549.46 1000.39 576.89 975.51 547.73 951.28 575.1 925.99 548.95 899.89 574.77 874.59 546.62 850.26 576.96 824.45 548.28 802.21 574.23 775.02 547.33 750.92 575.74 724.36 547.17 701.71 575.84 676.11 547.07 647.97 576.92 623.25 545.95 600.13 577.05 574.3 547.76 550.23 576.99 523.64 545.81 499.87 575.59 474.91 546.04 449.15 575.8 425.14 547.5 400.53 576.97 375.34 547.49 350.77 576.91 325.44 549.28 300.84 573.6 275.8 546.57 250.82 577.01 225.01 546.04 197.73 577.05 175.21 546.83 151.53 577.07 126.31 546.41 101.5 576.92 76.09 549.47 23.06 578.62 44.29 534.27 20.09 511.84 46.14 493.43 16.52 472.14 44.63 454.64 13 430.78 43.29 414.2 11.68 391.22 42.52 375.94 15.3 353.27 46.1 333.49 11.54 312.46 43.81 294.73 11.93 272.39 44.12 251.89 13.21 232.72 44.28 212.76 14.36 195.95 48.98 171.55 15.85 156.99 45.3 135.33 7.57 114.72 44.48 95.4 14.99 76.41 43.07 58.19 23.37 13.17 74.38 40.99 99.1 14.83 125.17 42.04 151.8 14.84 177.54 42.02 203.56 14.86 230.45 42.04 255.95 14.82 282.03 42.05 308.97 14.83 333.89 42.04 361.65 14.86 386.78 41.99 412.22 14.83 438.58 42.04 464.91 14.85 491.23 42.04 517.28 14.84 543.59 42.01 568.77 14.83 595.43 42.06 622.07 14.84 647.82 42.02 673.8 14.89 700.67 40.9 725.94 13.05 752.59 41.99 778.59 14.56 805.47 42.01 830.65 14.55 856.72 40.62 882.8 13.1 908.88 40.61 935.85 13.06 960.77 41.98 987.29 15.46 1013.33 42.07 1040.57 14.54 1065.77 42.03 1093 14.8 1114.59 39.6 1168.08 14.08 1148.13 56.46 1175.17 73.1 1146.64 94.42 1175.21 115.19 1144.9 133.77 1173.27 153.92 1146.75 174.16 1175.1 192.49 1146.13 214.29 1175.08 234.07 1145.97 255.19 1173.36 272.59 1147.44 292.76 1172.87 311.61 1146.8 332.81 1171.02 351.04 1146.44 373.34 1171.72 391.72 1146.37 412.8 1170.74 428.39 1145.87 454.11 1171.79 469.95 1145.19 493.97 1173.64 510.92 1145.88 533.95 1173.37 579.02 1120.55 551.19"/>
  <path d="M935.76,16.01l24.9,28.91,26.62-26.62,26.05,26.62,27.19-27.48,25.19,27.48,27.19-27.19,21.18,24.33,49.8-23.76-18.32,38.93,26.05,16.03-28.34,21.18,28.34,20.61-30.34,18.6,28.62,20.32-26.62,20.32,28.34,18.32-28.91,21.75,28.91,19.75-29.2,21.18,27.48,17.46-25.76,20.04,25.47,18.89-26.05,21.18,24.33,18.32-24.62,22.33,25.19,18.32-25.47,21.18,24.62,15.74-24.9,25.76,25.76,15.74-26.62,24.04,28.34,16.89-26.91,22.33,24.62,40.36-47.8-25.19-19.75,22.33-24.9-26.05-22.33,25.47-27.76-23.76-24.9,27.19-24.9-29.2-24.33,27.48-25.19-26.05-26.05,25.76-25.47-28.34-24.33,30.34-25.76-28.62-22.33,26.05-27.19-26.91-24.04,28.34-26.62-28.62-22.61,28.62-25.47-28.62-28.05,29.77-24.9-31.2-23.19,31.2-25.75-29.2-24.04,29.2-26.62-31.2-23.76,29.77-24.9-29.48-25.76,29.77-24.04-28.34-24.62,29.48-25.19-29.48-24.62,29.48-25.19-27.48-24.62,24.33-25.19-27.19-24.9,30.34-25.76-30.91-27.19,30.91-22.61-30.34-23.76,30.34-25.19-30.63-24.9,30.63-24.9-26.91-48.95,26.91,19.18-40.07-23.47-21.75,26.33-18.6-29.48-21.18,28.05-17.46-31.49-23.76,30.34-16.6-31.49-22.9,30.63-15.17-27.48-22.9,31.2-20.04-34.35-20.89,32.06-17.6-32.06-22.47,32.34-20.61-30.91-19.18,31.2-20.04-30.05-16.89,34.92-24.62-33.2-14.6,29.2-21.47-37.21-20.32,36.64-19.18-29.77-19.18,26.91-17.46L27.55,17.73l47.23,25.76,24.33-25.76,26.05,27.19,26.62-27.19,25.76,27.19,26.05-27.19,26.91,27.19,25.47-27.19,26.05,27.19,26.91-27.19,24.9,27.19,27.76-27.19,25.19,27.19,25.47-27.19,26.33,27.19,26.33-27.19,26.33,27.19,26.05-27.19,26.33,27.19,25.19-27.19,26.62,27.19,26.62-27.19,25.76,27.19,26.05-27.19,26.91,26.05,25.19-27.76,26.62,28.91,26.05-27.48,26.91,27.48,25.19-27.48,26.05,26.05,26.05-27.48,26.05,27.48,26.91-27.48M19.2,8.62l4.69,10.72,16.67,38.11-24.06,15.61-5.19,3.37,5.2,3.35,23.99,15.46-30.55,15.99-6.63,3.47,6.57,3.59,31.7,17.31-24.13,17.75-5.58,4.1,6.33,2.79,26.72,11.75-29.13,20.54-5.18,3.65,5.53,3.1,24.26,13.63-25.6,16.44-5.33,3.42,5.38,3.34,25.51,15.82-26.98,17.19-5.05,3.21,4.9,3.43,26.8,18.78-26.42,14.51-6.06,3.33,5.91,3.59,28.88,17.57-25.82,16.58-4.59,2.95,4.19,3.49,22.76,18.97-25.12,12.44-5.92,2.93,5.34,3.89,26.38,19.19-24.8,13.57-5.43,2.97,4.94,3.73,26.83,20.25-23.1,14.38-5.07,3.16,4.85,3.49,24.92,17.91-21.75,15.37-4.03,2.85,3.62,3.35,21.31,19.75-17.91,37.41-5.37,11.23,10.91-6,46.21-25.4,22.78,24.61,3.13,3.38,2.91-3.58,21.82-26.83,22.08,26.85,3.17,3.85,3.07-3.92,20.53-26.22,19.48,26.14,2.95,3.96,3.26-3.71,24.11-27.4,22.77,27.32,3.1,3.72,3.07-3.74,21.99-26.8,22.07,23.83,2.81,3.03,2.94-2.9,21.66-21.41,22.38,24.42,3.09,3.37,2.93-3.51,21.58-25.85,22.11,25.88,3.08,3.6,3.04-3.64,21.57-25.83,20.97,24.71,3.02,3.56,3.05-3.53,22.7-26.23,21.88,25.91,3.14,3.72,3.04-3.81,20.73-25.98,23.47,27.51,3.1,3.63,3.03-3.68,21.06-25.57,22.65,25.68,3.27,3.7,2.94-3.96,20.1-27.03,21.66,27.14,2.88,3.6,3.16-3.36,25.05-26.59,22.57,25.36,3.17,3.56,2.96-3.74,19.72-24.96,23.44,25.21,3.07,3.3,2.91-3.43,21.25-25.04,24.12,23.87,3.05,3.02,2.8-3.26,19.36-22.59,22.71,25.24,3.15,3.5,2.94-3.67,21.38-26.67,22.33,24.83,2.8,3.12,2.98-2.95,23.17-22.92,22.38,23.14,3,3.11,2.87-3.24,21.28-24.03,21.92,25.69,2.94,3.44,3.06-3.34,22.29-24.34,24.83,21.24,3,2.57,2.61-2.97,19.45-22.19,21.88,22.89,3.01,3.14,2.88-3.26,17.67-19.97,45.02,23.72,12.83,6.76-7.55-12.38-22.81-37.41,24.24-20.12,4.36-3.62-4.86-2.9-23.68-14.11,22.6-20.41,3.97-3.59-4.57-2.79-21.5-13.14,21.43-22.17,3.4-3.52-4.12-2.63-20.01-12.79,21.27-17.68,3.95-3.29-4.16-3.02-21.21-15.43,20.97-19.02,3.58-3.25-3.86-2.91-20.25-15.24,22.08-17.96,4-3.25-4.14-3.07-21.24-15.75,21.6-16.8,4.48-3.49-4.79-3.05-22.51-14.3,24.43-17.72,4.6-3.34-4.69-3.2-24.3-16.6,24.45-18.4,4.58-3.44-4.81-3.11-23.56-15.23,22.1-16.87,4.32-3.3-4.43-3.14-23.69-16.82,25.18-15.44,5.1-3.13-4.84-3.52-23.95-17.42,23.99-17.93,4.72-3.52-5.01-3.09-23-14.15,16.8-35.69,4.77-10.14-10.11,4.82-47.06,22.45-19.19-22.04-2.81-3.23-3.03,3.03-24.24,24.24-22.37-24.4-2.84-3.1-2.95,2.99-24.33,24.59-23.2-23.71-2.83-2.89-2.86,2.86-23.57,23.57-22.09-25.64-2.84-3.3-3.05,3.11-24,24.51-23.19-24.46-2.9-3.06-2.9,3.06-23.22,24.5-23.14-23.14-2.95-2.95-2.82,3.08-22.34,24.37-23.95-24.46-2.9-2.97-2.86,3.01-23.1,24.37-23.72-25.76-2.96-3.22-2.94,3.24-22.41,24.7-23.94-23.17-2.89-2.8-2.78,2.9-23.14,24.16-22.87-24.14-2.86-3.02-2.91,2.97-23.76,24.27-23.76-24.27-2.94-3-2.85,3.08-22.32,24.09-23.4-24.16-2.89-2.98-2.87,3-23.17,24.19-23.44-24.21-2.87-2.97-2.87,2.97-23.46,24.22-23.46-24.22-2.92-3.02-2.87,3.06-22.54,24.06-22.27-24.04-2.79-3.02-2.94,2.88-24.81,24.3-22.11-24.14-2.84-3.1-2.96,2.99-24.02,24.27-23.2-24.22-2.92-3.05-2.89,3.08-22.63,24.16-23.98-24.24-2.89-2.92-2.84,2.97-23.14,24.16-22.87-24.14-2.86-3.02-2.91,2.97-23.73,24.24-23.19-24.21-2.91-3.04-2.89,3.06-22.21,23.52L29.47,14.22l-10.27-5.6h0Z"/>
</svg>